HIERARCHY
ROOT Hips
{
	OFFSET -3.958830 18.904000 13.208200
	CHANNELS 6 Xposition Yposition Zposition Zrotation Yrotation Xrotation 
	JOINT LHipJoint
	{
		OFFSET 0.000000 0.000000 0.000000
		CHANNELS 3 Zrotation Yrotation Xrotation
		JOINT LeftUpLeg
		{
			OFFSET 1.800000 -1.400000 0.085000
			CHANNELS 3 Zrotation Yrotation Xrotation
			JOINT LeftLeg
			{
				OFFSET 2.215000 -6.000000 0.000000
				CHANNELS 3 Zrotation Yrotation Xrotation
				JOINT LeftFoot
				{
					OFFSET 2.500000 -6.900000 0.000000
					CHANNELS 3 Zrotation Yrotation Xrotation
					JOINT LeftToeBase
					{
						OFFSET 0.200000 -0.500000 1.950000
						CHANNELS 3 Zrotation Yrotation Xrotation
						End Site
						{
							OFFSET 0.000000 0.000000 0.000000
						}
					}
				}
			}
		}
	}
	JOINT RHipJoint
	{
		OFFSET 0.000000 0.000000 0.000000
		CHANNELS 3 Zrotation Yrotation Xrotation
		JOINT RightUpLeg
		{
			OFFSET -1.800000 -1.400000 0.085000
			CHANNELS 3 Zrotation Yrotation Xrotation
			JOINT RightLeg
			{
				OFFSET -2.215000 -6.000000 0.000000
				CHANNELS 3 Zrotation Yrotation Xrotation
				JOINT RightFoot
				{
					OFFSET -2.500000 -6.900000 0.000000
					CHANNELS 3 Zrotation Yrotation Xrotation
					JOINT RightToeBase
					{
						OFFSET -0.200000 -0.500000 1.950000
						CHANNELS 3 Zrotation Yrotation Xrotation
						End Site
						{
							OFFSET 0.000000 0.000000 0.000000
						}
					}
				}
			}
		}
	}
	JOINT LowerBack
	{
		OFFSET 0.000000 0.000000 0.000000
		CHANNELS 3 Zrotation Yrotation Xrotation
		JOINT Spine
		{
			OFFSET -0.087000 1.940000 -0.288900
			CHANNELS 3 Zrotation Yrotation Xrotation
			JOINT Spine1
			{
				OFFSET 0.000000 1.950000 0.060000
				CHANNELS 3 Zrotation Yrotation Xrotation
				JOINT Neck
				{
					OFFSET 0.000000 0.000000 0.000000
					CHANNELS 3 Zrotation Yrotation Xrotation
					JOINT Neck1
					{
						OFFSET 0.000000 1.600000 0.340000
						CHANNELS 3 Zrotation Yrotation Xrotation
						JOINT Head
						{
							OFFSET 0.000000 1.667000 -0.240000
							CHANNELS 3 Zrotation Yrotation Xrotation
							End Site
							{
								OFFSET 0.000000 0.000000 0.000000
							}
						}
					}
				}
				JOINT LeftShoulder
				{
					OFFSET 0.000000 0.000000 0.000000
					CHANNELS 3 Zrotation Yrotation Xrotation
					JOINT LeftArm
					{
						OFFSET 2.700000 1.550000 -0.730000
						CHANNELS 3 Zrotation Yrotation Xrotation
						JOINT LeftForeArm
						{
							OFFSET 5.450000 0.000000 0.000000
							CHANNELS 3 Zrotation Yrotation Xrotation
							JOINT LeftHand
							{
								OFFSET 3.450000 0.000000 0.000000
								CHANNELS 3 Zrotation Yrotation Xrotation
								JOINT LeftHandIndex1
								{
									OFFSET 0.750000 0.000000 0.000000
									CHANNELS 3 Zrotation Yrotation Xrotation
									End Site
									{
										OFFSET 0.000000 0.000000 0.000000
									}
								}
							}
						}
					}
				}
				JOINT RightShoulder
				{
					OFFSET 0.000000 0.000000 0.000000
					CHANNELS 3 Zrotation Yrotation Xrotation
					JOINT RightArm
					{
						OFFSET -2.700000 1.550000 -0.730000
						CHANNELS 3 Zrotation Yrotation Xrotation
						JOINT RightForeArm
						{
							OFFSET -5.450000 0.000000 0.000000
							CHANNELS 3 Zrotation Yrotation Xrotation
							JOINT RightHand
							{
								OFFSET -3.450000 0.000000 0.000000
								CHANNELS 3 Zrotation Yrotation Xrotation
								JOINT RightHandIndex1
								{
									OFFSET -0.750000 0.000000 0.000000
									CHANNELS 3 Zrotation Yrotation Xrotation
									End Site
									{
										OFFSET 0.000000 0.000000 0.000000
									}
								}
							}
						}
					}
				}
			}
		}
	}
}
MOTION
Frames: 7
Frame Time: 0.016667
-1.958460 16.376710 -2.146380 -9.733395 -1.044555 -9.041684 -15.390831 12.136902 5.128275 6.666926 -4.805867 -34.944373 -21.484698 22.693837 47.531836 1.014708 11.673800 0.482941 0.199330 -0.069190 0.398630 18.132153 -10.643550 2.081004 -3.082048 6.020413 -14.535429 -9.382700 -1.605340 43.439060 -0.714211 -5.816687 2.368105 -0.068960 0.107800 0.149230 -3.068698 -0.985102 -8.464620 13.639614 6.903690 38.191033 5.625191 10.500653 14.605776 3.824239 6.384737 -12.247975 14.194518 -9.162346 58.276739 -9.443960 2.018160 -5.756460 -10.722543 -8.781475 4.798654 -25.221767 6.051017 -12.317716 43.482086 -75.980610 -33.788283 -3.352220 2.355481 0.609320 0.065200 0.098990 -0.034270 2.984714 12.082800 6.623731 36.734883 13.609904 -17.509428 -51.052076 75.880238 -39.916998 1.407661 0.052076 -0.227540 0.276930 0.118700 -0.275210 
-1.993930 16.202050 -2.139590 -8.987874 -0.480472 -8.639562 -15.492658 11.526278 5.896880 12.520718 -4.409705 -38.560203 -30.661669 28.859992 48.041849 1.491181 13.333878 0.044051 0.167310 -0.091000 0.359610 18.164816 -10.178341 1.902290 -4.183720 6.823893 -15.892472 -8.872250 -2.208422 47.154914 -0.820414 -6.346542 2.188285 -0.079710 0.127260 0.127160 -3.003590 -1.077969 -8.843460 14.606712 6.247224 38.394617 5.711911 10.282791 13.734120 3.507650 6.396392 -12.769209 13.627170 -9.198208 58.856445 -8.712680 1.714920 -5.103330 -11.532461 -10.887865 5.352353 -23.448655 5.845979 -11.878477 39.825587 -72.803909 -29.073550 -3.363329 2.415181 0.622250 0.059900 0.097680 -0.024240 4.304867 13.819978 7.229147 35.206910 11.478859 -17.661127 -46.660118 70.143881 -33.014072 1.484839 -0.310463 -0.250540 0.304690 0.131200 -0.266660 
-1.990900 16.051740 -2.132600 -8.477302 0.604349 -8.505144 -15.548640 10.848069 6.667877 19.243557 -3.105247 -41.281125 -41.955396 34.743560 45.437326 1.870837 14.200567 -0.123883 0.175950 -0.087060 0.365640 18.256250 -9.780390 1.746179 -5.719634 7.474401 -17.510445 -7.995395 -3.336175 51.176109 -0.935571 -7.006785 1.964116 -0.076990 0.115220 0.109810 -3.097915 -0.930181 -9.224591 17.079204 4.691470 38.339461 5.114023 9.492401 12.952265 3.557584 5.919217 -13.128953 12.392837 -9.313342 59.912458 -9.041070 1.299000 -2.932580 -12.630470 -12.234491 5.433410 -23.257785 3.874789 -11.379232 38.948129 -70.635428 -26.990977 -3.344579 2.434274 0.593820 0.056920 0.084730 -0.008730 5.297105 15.077705 7.833936 35.279964 10.376388 -17.236785 -44.048534 64.289836 -28.084417 1.579528 -0.589061 -0.243870 0.283720 0.099620 -0.260300 
-1.950940 15.926360 -2.135390 -6.978890 2.229790 -8.350791 -15.571921 10.373270 7.173402 24.456337 -1.796323 -42.458051 -53.910557 38.474037 40.090246 2.039370 14.146956 -0.060273 0.218460 -0.044220 0.385350 18.335192 -9.555785 1.598631 -9.445062 7.717885 -19.680864 -6.396121 -5.416240 55.383989 -1.077888 -7.798768 1.661346 -0.057500 0.080610 0.116210 -3.211501 -0.786258 -9.479912 19.155744 3.279296 37.879603 4.254012 8.640706 12.329370 3.623243 5.477068 -13.328618 11.130161 -9.419007 60.987124 -8.403620 0.552890 -2.105630 -13.723475 -13.377264 5.210088 -24.360224 0.174480 -11.022448 37.750129 -69.586953 -25.786738 -3.315284 2.470936 0.579980 0.034590 0.093760 -0.000340 6.288847 15.969948 8.457620 36.622615 9.125175 -16.747504 -42.686874 57.038472 -23.962877 1.685611 -0.836495 -0.212250 0.241810 0.068210 -0.254200 
-1.917280 15.822930 -2.125410 -4.944397 4.577463 -7.375540 -15.655742 10.087409 7.483916 28.612817 -0.674028 -43.247191 -65.439119 39.494067 33.162930 2.112086 13.662374 0.139412 0.268680 0.024670 0.381770 18.349242 -9.280480 1.534250 -13.273352 7.405390 -22.747219 -5.828241 -7.322001 59.564753 -1.229424 -8.621733 1.386945 -0.025040 0.082900 0.112540 -3.121037 -0.999478 -9.687421 18.783633 2.834041 36.093404 5.715372 7.849921 11.107566 3.086392 5.128468 -12.837849 9.718523 -9.814499 61.701748 -7.401670 -0.644970 -0.698390 -15.037826 -12.892170 4.538680 -27.762340 -4.580436 -10.095411 36.511222 -70.083686 -25.375951 -3.289351 2.501650 0.537140 0.034100 0.090670 0.049250 8.840190 15.373085 8.297022 37.195008 7.315065 -15.828598 -38.709509 51.751795 -19.399898 1.789957 -1.045658 -0.180320 0.224270 0.012400 -0.220150 
-1.867110 15.755540 -2.105220 -3.296784 6.963183 -6.656079 -15.729056 9.884746 7.719193 32.765216 0.415397 -42.683381 -76.291100 38.202664 25.726651 2.087217 13.138216 0.310163 0.320100 0.082320 0.419880 18.363403 -9.054442 1.458951 -16.706058 6.389280 -24.986269 -5.752601 -9.103662 62.583723 -1.357740 -9.244217 1.188594 0.005910 0.065470 0.100120 -3.032945 -1.283656 -9.844581 18.514212 1.832909 34.225326 7.561020 6.499736 10.274565 2.711948 4.062713 -12.396061 7.164339 -9.765735 63.403620 -7.614910 -1.445800 -1.203410 -15.317597 -11.167168 4.052834 -35.154580 -8.626857 -9.334602 38.607649 -73.046142 -28.997087 -3.248496 2.380342 0.535910 0.022000 0.099500 0.056340 10.173500 14.215956 7.669332 37.735031 7.346468 -13.744659 -33.044194 44.161032 -13.842866 1.897114 -1.164735 -0.164900 0.244430 -0.011110 -0.222230 
-1.767460 15.703000 -2.087710 -2.044074 10.027004 -4.923195 -15.701281 9.420813 8.030915 36.343805 0.610972 -42.849800 -85.033980 34.585724 18.895335 2.123304 12.684199 0.471308 0.329430 0.093970 0.396890 18.484256 -8.963312 1.369597 -20.347883 4.283321 -26.988077 -5.147000 -11.421655 63.562390 -1.412142 -9.669991 1.024243 -0.002120 0.060130 0.118650 -3.227668 -1.047044 -10.017477 19.562485 0.479022 30.290308 8.443717 4.804730 9.237774 2.215645 3.545598 -12.677610 6.255114 -10.297306 64.860885 -7.325110 -1.859560 1.465090 -14.164559 -9.594077 4.424464 -45.437544 -12.486255 -7.926309 44.587684 -76.444052 -36.097149 -3.176222 2.221834 0.494880 0.028380 0.093070 0.080130 10.207967 12.322140 7.188016 40.684373 6.591324 -11.405930 -28.208641 36.001618 -9.526754 2.038775 -1.291281 -0.126490 0.186440 -0.034830 -0.197160 
